<?xml version="1.0" encoding="UTF-8"?><!DOCTYPE svg PUBLIC "-//W3C//DTD SVG 1.1//EN" "http://www.w3.org/Graphics/SVG/1.1/DTD/svg11.dtd"><svg xmlns="http://www.w3.org/2000/svg" xmlns:xlink="http://www.w3.org/1999/xlink"><defs>
		<rect id="SVGID_1_" y="0" width="39.1" height="45.7"/>
	
		<rect id="SVGID_1_" y="0" width="39.1" height="45.7"/>
	
		<rect id="SVGID_1_" y="0" width="39.1" height="45.7"/>
	
		<rect id="SVGID_1_" y="0" width="39.1" height="45.7"/>
	</defs><symbol id="date" viewBox="0 0 39.1 45.7">
<g>
	
	<clipPath id="SVGID_2_">
		<use xlink:href="#SVGID_1_" overflow="visible"/>
	</clipPath>
	<path clip-path="url(#SVGID_2_)" fill="none" stroke="#ac0042" stroke-miterlimit="10" d="M36.3,9.7L19.7,0.5
		c-0.1-0.1-0.3-0.1-0.4,0L2.7,9.7c-1.4,0.8-2.2,2.2-2.2,3.8v21c0,0.1,0.1,0.3,0.2,0.4l18.6,10.3c0.1,0,0.1,0,0.2,0
		c0.1,0,0.1,0,0.2,0l18.6-10.3c0.1-0.1,0.2-0.2,0.2-0.4v-21C38.6,11.9,37.7,10.5,36.3,9.7z"/>
	<path clip-path="url(#SVGID_2_)" fill="#ac0042" d="M25.1,16.5h-0.8V15h-1.6v1.6h-6.3V15h-1.6v1.6H14c-0.9,0-1.6,0.7-1.6,1.6l0,11
		c0,0.9,0.7,1.6,1.6,1.6h11c0.9,0,1.6-0.7,1.6-1.6v-11C26.6,17.3,25.9,16.5,25.1,16.5 M25.1,29.1H14v-8.7h11V29.1z"/>
	<path clip-path="url(#SVGID_2_)" fill="#ac0042" d="M20.3,22.4l-0.2,3.9h-1l-0.2-3.9H20.3z M20.2,27.6H19v-1h1.2V27.6z"/>
</g>
</symbol><symbol id="notification" viewBox="0 0 39.1 45.7">
<g>
	
	<clipPath id="SVGID_2_">
		<use xlink:href="#SVGID_1_" style="overflow:visible;"/>
	</clipPath>
	<path stroke="#ac0042" d="M36.3,9.7L19.7,0.5c-0.1-0.1-0.3-0.1-0.4,0L2.7,9.7c-1.4,0.8-2.2,2.2-2.2,3.8v21c0,0.1,0.1,0.3,0.2,0.3
		l18.6,10.3c0.1,0,0.1,0.1,0.2,0.1c0.1,0,0.1,0,0.2-0.1l18.6-10.3c0.1-0.1,0.2-0.2,0.2-0.3v-21C38.6,11.9,37.7,10.5,36.3,9.7z"/>
	<path fill="#ac0042" d="M13.8,32.3c0,0.3,0.2,0.5,0.5,0.5h10c0.3,0,0.5-0.2,0.5-0.5v-2.5h-11V32.3z M19.3,30.6c0.4,0,0.8,0.4,0.8,0.8
		c0,0.4-0.4,0.8-0.8,0.8c-0.4,0-0.8-0.4-0.8-0.8C18.6,30.9,18.9,30.6,19.3,30.6"/>
	<path fill="#ac0042" d="M24.3,12.8h-10c-0.3,0-0.5,0.2-0.5,0.5v2.5h11v-2.5C24.8,13,24.6,12.8,24.3,12.8 M20.3,14.8h-2
		c-0.3,0-0.5-0.2-0.5-0.5c0-0.3,0.2-0.5,0.5-0.5h2c0.3,0,0.5,0.2,0.5,0.5C20.8,14.6,20.6,14.8,20.3,14.8"/>
	<path fill="#ac0042" d="M13.8,28.8h11v-12h-11V28.8z M17.3,23.6v-1c0-0.9,0.6-1.7,1.5-1.9v-0.5c0-0.3,0.2-0.5,0.5-0.5
		c0.3,0,0.5,0.2,0.5,0.5v0.5c0.8,0.2,1.5,1,1.5,1.9v1c0.3,0,0.5,0.2,0.5,0.5c0,0.3-0.2,0.5-0.5,0.5h-1.3c0,0.4-0.4,0.8-0.8,0.8
		c-0.4,0-0.8-0.4-0.8-0.8h-1.3c-0.3,0-0.5-0.2-0.5-0.5C16.8,23.8,17,23.6,17.3,23.6"/>
	<path fill="#ac0042" d="M20.3,22.6c0-0.6-0.5-1-1-1c-0.6,0-1,0.4-1,1v1h2V22.6z"/>
</g>
</symbol><symbol id="sale" viewBox="0 0 39.1 45.7">
<g>
	
	<clipPath id="SVGID_2_">
		<use xlink:href="#SVGID_1_" style="overflow:visible;"/>
	</clipPath>
	<path stroke="#ac0042" d="M36.3,9.7L19.7,0.5c-0.1-0.1-0.3-0.1-0.4,0L2.7,9.7c-1.4,0.8-2.2,2.2-2.2,3.8v21c0,0.1,0.1,0.3,0.2,0.3
		l18.6,10.3c0.1,0,0.1,0.1,0.2,0.1c0.1,0,0.1,0,0.2-0.1l18.6-10.3c0.1-0.1,0.2-0.2,0.2-0.3v-21C38.6,11.9,37.7,10.5,36.3,9.7z"/>
	<path fill="#ac0042" d="M30,23.7L19.6,13.3c-0.3-0.3-0.6-0.4-1-0.4l-7.1,0.5c-0.6,0-1.2,0.6-1.2,1.2l-0.5,7.1c0,0.4,0.1,0.7,0.4,1
		l10.4,10.4c0.5,0.5,1.3,0.5,1.8,0l7.5-7.5C30.5,25,30.5,24.2,30,23.7 M21.7,25.5c-0.4,0.4-0.9,0.7-1.6,0.8v0.8h-1v-0.8
		c-0.6-0.1-1.1-0.3-1.5-0.6c-0.4-0.4-0.6-1-0.6-2v-0.4h2.1v0.5c0,0.6,0,0.9,0.1,1.1c0,0.1,0.1,0.2,0.3,0.2c0.1,0,0.2,0,0.3-0.1
		c0.1-0.1,0.1-0.2,0.1-0.4c0-0.5,0-0.8-0.1-1c-0.1-0.2-0.3-0.4-0.7-0.7c-0.6-0.4-1.1-0.7-1.3-0.9c-0.2-0.2-0.4-0.5-0.6-0.8
		c-0.2-0.3-0.3-0.7-0.3-1.2c0-0.6,0.2-1.1,0.5-1.5c0.4-0.4,0.9-0.6,1.6-0.7v-0.7h1v0.7c0.6,0.1,1.1,0.3,1.5,0.7
		c0.3,0.4,0.5,0.8,0.5,1.5c0,0.1,0,0.2,0,0.4h-2.1v-0.3c0-0.4,0-0.6-0.1-0.7c0-0.1-0.2-0.2-0.3-0.2c-0.1,0-0.2,0-0.3,0.1
		c-0.1,0.1-0.1,0.2-0.1,0.4c0,0.3,0.1,0.6,0.2,0.7c0.1,0.1,0.5,0.4,1.1,0.8c0.5,0.3,0.9,0.6,1.1,0.7c0.2,0.2,0.4,0.4,0.5,0.7
		c0.1,0.3,0.2,0.7,0.2,1.2C22.2,24.5,22,25,21.7,25.5"/>
</g>
</symbol><symbol id="search" viewBox="0 0 39.1 45.7">
<g>
	
	<clipPath id="SVGID_2_">
		<use xlink:href="#SVGID_1_" overflow="visible"/>
	</clipPath>
	<path clip-path="url(#SVGID_2_)" fill="none" stroke="#ac0042" stroke-miterlimit="10" d="M36.3,9.7L19.7,0.5
		c-0.1-0.1-0.3-0.1-0.4,0L2.7,9.7c-1.4,0.8-2.2,2.2-2.2,3.8v21c0,0.1,0.1,0.3,0.2,0.3l18.6,10.3c0.1,0,0.1,0.1,0.2,0.1
		c0.1,0,0.1,0,0.2-0.1l18.6-10.3c0.1-0.1,0.2-0.2,0.2-0.3v-21C38.6,11.9,37.7,10.5,36.3,9.7z"/>
	<path clip-path="url(#SVGID_2_)" fill="#ac0042" d="M27.5,30.4V18.9l-6-6h-7.9c-1.1,0-2,0.9-2,2l0,15.9c0,1.1,0.9,2,2,2h11.9
		c0.4,0,0.8-0.1,1.2-0.4L22.3,28c-0.8,0.5-1.7,0.8-2.7,0.8c-2.7,0-5-2.2-5-5c0-2.7,2.2-5,5-5s5,2.2,5,5c0,1-0.3,1.9-0.8,2.7
		L27.5,30.4z M16.6,23.8c0,1.6,1.3,3,3,3c1.6,0,3-1.3,3-3c0-1.6-1.3-3-3-3C17.9,20.9,16.6,22.2,16.6,23.8"/>
</g>
</symbol></svg>